<?xml version="1.0" standalone="no"?>
<!DOCTYPE svg PUBLIC "-//W3C//DTD SVG 20010904//EN"
 "http://www.w3.org/TR/2001/REC-SVG-20010904/DTD/svg10.dtd">
<svg version="1.0" xmlns="http://www.w3.org/2000/svg"
 width="512.000000pt" height="512.000000pt" viewBox="0 0 512.000000 512.000000"
 preserveAspectRatio="xMidYMid meet">
<metadata>
Created by potrace 1.14, written by Peter Selinger 2001-2017
</metadata>
<g transform="translate(0.000000,512.000000) scale(0.100000,-0.100000)"
fill="#000000" stroke="none">
<path d="M2818 4100 c-91 -16 -154 -94 -160 -200 l-3 -55 -43 -1 c-23 -1 -48
-2 -55 -3 -17 -1 -17 -121 0 -122 7 0 33 -1 57 -2 l44 -1 0 -272 c0 -149 2
-276 5 -281 5 -8 141 -11 178 -4 4 0 7 122 7 270 -1 148 2 273 6 279 4 6 26
11 49 10 80 -1 76 -4 76 65 l0 64 -65 -2 -64 -2 0 43 c0 64 20 79 101 75 l36
-2 2 71 c1 61 -1 70 -16 71 -71 5 -123 4 -155 -1z"/>
<path d="M3094 4095 c-2 -5 -2 -219 -1 -475 l2 -464 95 -1 95 -1 -2 455 c-1
251 -2 466 -2 477 -1 21 -5 22 -92 21 -52 -1 -93 -6 -95 -12z"/>
<path d="M3439 4101 c0 -3 -2 -39 -2 -79 l-2 -72 95 0 95 0 -1 68 c0 37 -2 72
-2 79 -2 11 -181 15 -183 4z"/>
<path d="M4590 3946 l0 -104 -55 2 c-33 1 -55 -2 -56 -8 0 -6 -2 -35 -3 -63
-1 -58 -3 -57 72 -54 l42 2 0 -228 c0 -218 1 -230 23 -268 31 -55 83 -73 207
-71 l95 1 3 73 3 74 -33 -4 c-50 -7 -95 8 -102 34 -3 13 -6 105 -6 205 l0 182
70 -2 71 -2 -3 64 -3 65 -65 0 -65 1 -3 103 -3 102 -94 0 -95 0 0 -104z"/>
<path d="M550 3862 c-195 -14 -323 -160 -323 -367 -1 -181 106 -320 268 -350
176 -32 332 42 385 183 34 91 34 92 -68 92 l-89 0 -11 -38 c-6 -21 -25 -51
-42 -67 -28 -27 -38 -30 -93 -30 -46 0 -69 5 -89 20 -71 52 -96 225 -47 321
33 64 68 88 132 90 66 3 101 -18 128 -72 l20 -42 90 -1 91 0 -7 37 c-26 139
-176 237 -345 224z"/>
<path d="M1327 3864 c-1 -1 -24 -5 -51 -8 -107 -15 -205 -88 -249 -185 -26
-58 -27 -61 -34 -149 -11 -148 59 -286 176 -347 52 -26 150 -41 223 -34 211
22 335 191 305 417 -22 169 -134 280 -304 301 -35 4 -64 6 -66 5z m90 -161
c62 -29 96 -104 95 -208 -1 -146 -71 -226 -187 -212 -99 11 -140 74 -140 217
1 98 12 137 53 178 43 43 119 54 179 25z"/>
<path d="M2185 3859 c-64 -12 -110 -35 -144 -74 -17 -20 -31 -32 -32 -28 -1 4
-2 24 -2 43 -1 19 -4 37 -8 40 -4 3 -45 5 -90 5 l-83 -1 -1 -334 c-1 -184 0
-340 2 -345 2 -6 42 -10 95 -10 l92 0 2 220 c1 146 5 230 13 250 25 61 65 86
137 87 102 0 116 -41 118 -334 l1 -223 93 0 92 -1 1 41 c3 136 -1 446 -7 479
-13 77 -51 134 -110 164 -34 18 -125 29 -169 21z"/>
<path d="M4048 3859 c-104 -15 -205 -85 -249 -171 -43 -84 -55 -210 -29 -308
23 -88 104 -182 185 -215 52 -20 134 -30 194 -23 148 18 253 108 276 241 l7
37 -90 0 -90 0 -7 -30 c-18 -82 -115 -132 -197 -101 -126 48 -140 327 -19 408
25 17 44 21 84 19 66 -4 92 -20 118 -74 l21 -42 90 1 90 1 -7 36 c-15 83 -77
156 -162 194 -53 23 -153 36 -215 27z"/>
<path d="M3442 3835 c-6 -8 -8 -590 -3 -666 1 -22 179 -22 185 1 2 8 3 163 2
345 l-1 330 -88 0 c-50 0 -91 -4 -95 -10z"/>
<path d="M1690 2822 c-1 -26 -2 -561 -3 -1190 -2 -1136 -2 -1142 18 -1143 29
-1 456 -1 483 0 l22 1 0 1189 0 1189 -260 0 -260 1 0 -47z"/>
<path d="M2670 1680 c0 -945 3 -1190 13 -1191 132 -6 1151 3 1207 11 293 42
527 187 685 425 135 203 199 446 199 760 0 176 -9 264 -44 400 -47 187 -143
366 -259 485 -128 131 -317 232 -503 269 -29 6 -66 14 -83 17 -16 4 -297 9
-622 10 l-593 4 0 -1190z m1060 734 c95 -16 123 -25 202 -63 67 -32 137 -91
185 -156 32 -43 73 -127 73 -148 0 -7 4 -17 8 -23 8 -8 21 -60 37 -143 17 -87
22 -283 11 -381 -34 -304 -194 -503 -446 -556 -65 -13 -352 -21 -576 -15 l-30
1 0 743 c0 499 3 744 10 749 18 12 446 5 526 -8z"/>
</g>
</svg>
